<svg id="Layer_1" data-name="Layer 1" xmlns="http://www.w3.org/2000/svg" viewBox="0 0 34.6 31">
  <defs>
    <style>
      .cls-1,.cls-2{fill:none;}.cls-14,.cls-2{clip-path:url(#clip-path);}.cls-3{clip-path:url(#clip-path-2);}.cls-4{fill:#547dbf;}.cls-5{fill:url(#linear-gradient);}.cls-7{fill:#2d3079;}.cls-20,.cls-7{fill-opacity:0.1;}.cls-8{fill:#ffce40;}.cls-10{fill:#db4436;}.cls-12{fill:url(#linear-gradient-5);}.cls-13{fill:#3e2723;}.cls-13,.cls-18,.cls-19{fill-opacity:0.05;}.cls-15{fill:#eee;}.cls-16{clip-path:url(#clip-path-4);}.cls-17,.cls-22{fill:#fff;}.cls-17{fill-opacity:0.4;}.cls-18,.cls-20{fill:#262626;}.cls-19{fill:#be3a26;}.cls-21{fill:url(#linear-gradient-6);}.cls-22{fill-opacity:0.2;}.cls-23{fill:url(#radial-gradient);}
    </style>
    <clipPath id="clip-path">
      <path class="cls-1"
            d="M29.37,6.18H11.67l15.9,9.2-8.9,15.4h5.8a2.2,2.2,0,0,0,2-1.2L34,16.48a2.35,2.35,0,0,0,0-2.3Z"/>
    </clipPath>
    <clipPath id="clip-path-2">
      <path class="cls-1"
            d="M34,14.18l-4.6-8.1-2.9-5a2.4,2.4,0,0,0-2-1.1h-15a2.2,2.2,0,0,0-2,1.2l-4.6,8.1-2.9,5a2.35,2.35,0,0,0,0,2.3l7.5,13a2.4,2.4,0,0,0,2,1.2h15a2.2,2.2,0,0,0,2-1.2L34,16.48A2.35,2.35,0,0,0,34,14.18ZM16.87,20a4.6,4.6,0,1,1,4.6-4.6A4.59,4.59,0,0,1,16.87,20Z"/>
    </clipPath>
    <clipPath id="clip-path-4">
      <path class="cls-1"
            d="M11.67,24.58,2.87,9.28l-2.9,5a2.35,2.35,0,0,0,0,2.3l7.5,13a2.4,2.4,0,0,0,2,1.2h9.3l8.9-15.4Z"/>
    </clipPath>
    <radialGradient id="radial-gradient" cx="8.33" cy="1073.46" r="34.57"
                    gradientTransform="matrix(0.01, 0, 0, -0.01, 1282.05, -5085.72)" gradientUnits="userSpaceOnUse">
      <stop offset="0" stop-color="#fff" stop-opacity="0.1"/>
      <stop offset="1" stop-color="#fff" stop-opacity="0"/>
    </radialGradient>
  </defs>
  <title>Artboard 1</title>
  <g class="cls-3">
    <path class="cls-4" d="M11.67,6.18h17.7l-2.9-5a2.27,2.27,0,0,0-2-1.2h-15a2.2,2.2,0,0,0-2,1.2l-4.6,8.1,8.8,15.3Z"/>
    <path class="cls-5" d="M11.67,6.18h17.7l-2.9-5a2.27,2.27,0,0,0-2-1.2h-15a2.2,2.2,0,0,0-2,1.2l-4.6,8.1,8.8,15.3Z"/>

    <polygon class="cls-7" points="6.76 15.68 3.37 9.78 2.87 9.28 6.57 15.78 6.76 15.68"/>
    <path class="cls-8"
          d="M11.67,24.58,2.87,9.28l-2.9,5a2.35,2.35,0,0,0,0,2.3l7.5,13a2.4,2.4,0,0,0,2,1.2h9.3l8.9-15.4Z"/>
    <path class="cls-10"
          d="M29.37,6.18H11.67l15.9,9.2-8.9,15.4h5.8a2.2,2.2,0,0,0,2-1.2L34,16.48a2.35,2.35,0,0,0,0-2.3Z"/>
    <polygon class="cls-12" points="22.27 6.18 34.27 18.18 34.27 30.78 18.77 30.78 22.27 24.58 22.27 6.18"/>
    <rect class="cls-13" x="22.17" y="6.18" width="7.5" height="0.2"/>
  </g>
  <path class="cls-1"
        d="M34,14.18l-4.6-8.1-2.9-5a2.4,2.4,0,0,0-2-1.1h-15a2.2,2.2,0,0,0-2,1.2l-4.6,8.1-2.9,5a2.35,2.35,0,0,0,0,2.3l7.5,13a2.4,2.4,0,0,0,2,1.2h15a2.2,2.2,0,0,0,2-1.2L34,16.48A2.35,2.35,0,0,0,34,14.18ZM16.87,20a4.6,4.6,0,1,1,4.6-4.6A4.59,4.59,0,0,1,16.87,20Z"/>
  <g class="cls-14">
    <path class="cls-15" d="M22.27,6.18l5.3,9.2-5.3,9.2H11.67l-5.3-9.2,5.3-9.2h10.6"/>
    <path class="cls-4" d="M11.67,6.18h17.7l-2.9-5a2.27,2.27,0,0,0-2-1.2h-15a2.2,2.2,0,0,0-2,1.2l-4.6,8.1,8.8,15.3Z"/>
  </g>
  <path class="cls-1"
        d="M34,14.18l-4.6-8.1-2.9-5a2.4,2.4,0,0,0-2-1.1h-15a2.2,2.2,0,0,0-2,1.2l-4.6,8.1-2.9,5a2.35,2.35,0,0,0,0,2.3l7.5,13a2.4,2.4,0,0,0,2,1.2h15a2.2,2.2,0,0,0,2-1.2L34,16.48A2.35,2.35,0,0,0,34,14.18ZM16.87,20a4.6,4.6,0,1,1,4.6-4.6A4.59,4.59,0,0,1,16.87,20Z"/>
  <g class="cls-16">
    <path class="cls-15" d="M22.27,6.18l5.3,9.2-5.3,9.2H11.67l-5.3-9.2,5.3-9.2h10.6"/>
  </g>
  <g class="cls-3">
    <path class="cls-15" d="M22.27,6.18l5.3,9.2-5.3,9.2H11.67l-5.3-9.2,5.3-9.2h10.6"/>
    <polygon class="cls-17"
             points="22.27 6.38 27.46 15.38 27.66 15.38 22.27 6.18 11.66 6.18 6.37 15.38 6.46 15.38 11.66 6.38 22.27 6.38"/>
    <polygon class="cls-18"
             points="27.46 15.38 22.27 24.38 11.66 24.38 6.46 15.38 6.37 15.38 11.66 24.58 22.27 24.58 27.66 15.38 27.46 15.38"/>
    <polygon class="cls-19"
             points="27.66 15.38 22.27 24.58 11.66 24.58 6.37 15.38 6.37 15.58 11.66 24.78 22.27 24.78 27.66 15.58 27.66 15.38"/>
    <path class="cls-20"
          d="M16.87,10.58a4.65,4.65,0,0,0-4.6,4.6h9.2A4.53,4.53,0,0,0,16.87,10.58Zm-4.6,5a4.6,4.6,0,0,0,9.2,0Z"/>
  </g>
  <g class="cls-3">
    <polygon class="cls-21" points="11.66 24.58 17.86 30.78 18.77 30.78 22.27 24.58 11.66 24.58"/>
  </g>
  <g class="cls-3">
    <path class="cls-22"
          d="M2.87,9.48l4.6-8.1a2.4,2.4,0,0,1,2-1.2h15a2.2,2.2,0,0,1,2,1.2l2.9,5,4.6,8.1a2,2,0,0,1,.3,1.1,2.38,2.38,0,0,0-.3-1.2l-4.6-8.1-2.9-5a2.19,2.19,0,0,0-2-1.3h-15a2.2,2.2,0,0,0-2,1.2l-4.6,8.1-2.9,5a2.66,2.66,0,0,0-.3,1.2,2.28,2.28,0,0,1,.3-1.1Zm6.6,21.1a2.2,2.2,0,0,1-2-1.2l-4.6-8.1-2.9-5a2,2,0,0,1-.3-1.1,2.38,2.38,0,0,0,.3,1.2l2.9,5,4.6,8.2a2.4,2.4,0,0,0,2,1.2h9.3l.1-.2Zm24.8-15.3a2.28,2.28,0,0,1-.3,1.1l-4.6,8.1-2.9,5a2.4,2.4,0,0,1-2,1.2h-5.6l-.1.2h5.7a2.2,2.2,0,0,0,2-1.2l2.9-5,4.6-8.1A3.08,3.08,0,0,0,34.27,15.28Z"/>
  </g>
  <path class="cls-23"
        d="M34,14.18l-4.6-8.1-2.9-5a2.4,2.4,0,0,0-2-1.1h-15a2.2,2.2,0,0,0-2,1.2l-4.6,8.1-2.9,5a2.35,2.35,0,0,0,0,2.3l7.5,13a2.4,2.4,0,0,0,2,1.2h15a2.2,2.2,0,0,0,2-1.2L34,16.48A2.35,2.35,0,0,0,34,14.18ZM16.87,20a4.6,4.6,0,1,1,4.6-4.6A4.59,4.59,0,0,1,16.87,20Z"/>
</svg>
